<svg width="53" height="18" viewBox="0 0 53 18" fill="none" xmlns="http://www.w3.org/2000/svg">
<path d="M6.75269 3.01156C7.22937 2.75253 7.8048 2.75253 8.28148 3.01156L12.5731 5.34357C13.0887 5.62373 13.4097 6.16351 13.4097 6.75029V11.25C13.4097 11.8368 13.0887 12.3765 12.5731 12.6567L8.28148 14.9887C7.8048 15.2478 7.22938 15.2478 6.75269 14.9887L2.46107 12.6567C1.94549 12.3765 1.62448 11.8368 1.62448 11.25V6.75029C1.62448 6.16351 1.94549 5.62373 2.46107 5.34357L6.75269 3.01156Z" fill="#423434" fill-opacity="0.6"/>
<path d="M21.504 8V2.1072H23.4968C23.9179 2.1072 24.2928 2.17784 24.6215 2.31911C24.9503 2.46039 25.2084 2.66958 25.3958 2.9467C25.586 3.22382 25.6811 3.56478 25.6811 3.96959C25.6811 4.36081 25.5928 4.69498 25.4162 4.9721C25.2423 5.24921 24.9992 5.45977 24.6867 5.60376C24.3743 5.74775 24.0116 5.81975 23.5986 5.81975H22.2783V8H21.504ZM22.2742 5.18401H23.5823C23.9871 5.18401 24.3159 5.07126 24.5685 4.84576C24.8212 4.62027 24.9475 4.31326 24.9475 3.92476C24.9475 3.53354 24.8171 3.2374 24.5563 3.03636C24.2955 2.83531 23.9586 2.73479 23.5457 2.73479H22.2742V5.18401ZM28.8854 8.0815C28.3556 8.0815 27.9033 7.96061 27.5284 7.71881C27.1562 7.47701 26.8709 7.12926 26.6726 6.67555C26.477 6.22184 26.3792 5.6744 26.3792 5.03322C26.3792 4.39477 26.477 3.8514 26.6726 3.40313C26.8682 2.95485 27.1521 2.61389 27.5243 2.38024C27.8992 2.14388 28.3529 2.0257 28.8854 2.0257C29.3011 2.0257 29.6692 2.11263 29.9898 2.28651C30.3104 2.45767 30.5685 2.68724 30.7641 2.97523C30.9597 3.26321 31.0752 3.57972 31.1105 3.92476H30.3077C30.2642 3.69383 30.1814 3.48463 30.0591 3.29717C29.9368 3.10971 29.7765 2.96028 29.5782 2.84889C29.3799 2.7375 29.1422 2.68181 28.8651 2.68181C28.5091 2.68181 28.2076 2.76603 27.9603 2.93447C27.7158 3.1002 27.5297 3.35694 27.402 3.7047C27.2771 4.05245 27.2146 4.49801 27.2146 5.04137C27.2146 5.86186 27.3545 6.46499 27.6343 6.85078C27.9169 7.23385 28.3271 7.42539 28.8651 7.42539C29.1422 7.42539 29.3799 7.36698 29.5782 7.25016C29.7765 7.13333 29.9368 6.97711 30.0591 6.7815C30.1814 6.58589 30.2642 6.37398 30.3077 6.14577H31.1105C31.0806 6.39571 31.0127 6.63751 30.9067 6.87116C30.8035 7.10209 30.6609 7.30857 30.4788 7.49059C30.2968 7.67262 30.0727 7.81661 29.8064 7.92257C29.5429 8.02853 29.2359 8.0815 28.8854 8.0815ZM32.3288 8V2.1072H33.0827V8H32.3288ZM36.619 8V2.1072C36.638 2.1072 36.695 2.10856 36.7901 2.11128C36.8879 2.11128 37.0061 2.11128 37.1447 2.11128C37.2832 2.10856 37.4272 2.10856 37.5766 2.11128C37.7261 2.11128 37.8633 2.11263 37.9882 2.11535C38.7109 2.12622 39.2964 2.2444 39.7447 2.4699C40.1957 2.69268 40.5258 3.01734 40.735 3.44388C40.9469 3.87042 41.0528 4.39477 41.0528 5.01692C41.0528 5.66896 40.9387 6.2164 40.7105 6.65925C40.485 7.10209 40.14 7.43626 39.6754 7.66175C39.2135 7.88725 38.6253 8 37.9108 8H36.619ZM37.3933 7.35204H37.9108C38.3971 7.35204 38.8155 7.27732 39.166 7.1279C39.5165 6.97576 39.7854 6.72988 39.9729 6.39028C40.1631 6.05068 40.2582 5.59697 40.2582 5.02915C40.2582 4.46133 40.1658 4.0117 39.981 3.68024C39.799 3.34879 39.5355 3.11243 39.1904 2.97115C38.8454 2.82716 38.4297 2.75516 37.9434 2.75516H37.3933V7.35204ZM44.2113 8.0815C43.9233 8.0815 43.6503 8.04754 43.3922 7.97962C43.1341 7.90899 42.8991 7.80439 42.6872 7.66583C42.478 7.52727 42.3041 7.35611 42.1656 7.15235C42.0297 6.94587 41.9441 6.70679 41.9088 6.43511H42.6994C42.7483 6.65789 42.8448 6.84535 42.9888 6.99749C43.1355 7.14963 43.3161 7.26374 43.5308 7.33981C43.7481 7.41588 43.9858 7.45392 44.2439 7.45392C44.4939 7.45392 44.7235 7.41452 44.9326 7.33574C45.1446 7.25695 45.3144 7.14284 45.4421 6.99342C45.5697 6.84127 45.6336 6.65925 45.6336 6.44733C45.6336 6.21369 45.5575 6.02622 45.4054 5.88495C45.2532 5.74096 45.0182 5.62549 44.7004 5.53855L43.4859 5.22476C43.2115 5.15684 42.9684 5.06175 42.7565 4.93949C42.5473 4.81452 42.3829 4.65151 42.2634 4.45046C42.1438 4.2467 42.0841 3.99404 42.0841 3.69247C42.0841 3.3583 42.1764 3.0676 42.3612 2.82037C42.5459 2.57042 42.7959 2.37752 43.111 2.24168C43.4289 2.10313 43.7875 2.03385 44.1869 2.03385C44.6487 2.03385 45.0372 2.11399 45.3524 2.27429C45.6703 2.43458 45.9107 2.64513 46.0737 2.90595C46.2367 3.16676 46.3182 3.44524 46.3182 3.74137H45.5439C45.5195 3.47241 45.4407 3.26049 45.3076 3.10563C45.1744 2.94806 45.0087 2.83531 44.8104 2.76739C44.6121 2.69675 44.3961 2.66143 44.1624 2.66143C43.7413 2.66143 43.4221 2.75788 43.2047 2.95078C42.9901 3.14095 42.8828 3.36781 42.8828 3.63134C42.8828 3.87314 42.9602 4.06332 43.1151 4.20187C43.2699 4.34043 43.4982 4.44775 43.7997 4.52382L44.9816 4.82946C45.332 4.91097 45.6105 5.02915 45.817 5.18401C46.0262 5.33887 46.1756 5.51954 46.2653 5.72602C46.3576 5.92978 46.4038 6.1512 46.4038 6.39028C46.4038 6.7163 46.3128 7.007 46.1308 7.26238C45.9487 7.51776 45.6934 7.71881 45.3646 7.86552C45.0386 8.00951 44.6542 8.0815 44.2113 8.0815ZM49.7272 8.0815C49.4392 8.0815 49.1662 8.04754 48.9081 7.97962C48.65 7.90899 48.415 7.80439 48.2031 7.66583C47.9939 7.52727 47.82 7.35611 47.6815 7.15235C47.5456 6.94587 47.46 6.70679 47.4247 6.43511H48.2153C48.2642 6.65789 48.3607 6.84535 48.5047 6.99749C48.6514 7.14963 48.832 7.26374 49.0467 7.33981C49.264 7.41588 49.5017 7.45392 49.7598 7.45392C50.0098 7.45392 50.2394 7.41452 50.4486 7.33574C50.6605 7.25695 50.8303 7.14284 50.958 6.99342C51.0856 6.84127 51.1495 6.65925 51.1495 6.44733C51.1495 6.21369 51.0734 6.02622 50.9213 5.88495C50.7691 5.74096 50.5341 5.62549 50.2163 5.53855L49.0018 5.22476C48.7274 5.15684 48.4843 5.06175 48.2724 4.93949C48.0632 4.81452 47.8988 4.65151 47.7793 4.45046C47.6597 4.2467 47.6 3.99404 47.6 3.69247C47.6 3.3583 47.6923 3.0676 47.8771 2.82037C48.0618 2.57042 48.3118 2.37752 48.6269 2.24168C48.9448 2.10313 49.3034 2.03385 49.7028 2.03385C50.1646 2.03385 50.5531 2.11399 50.8683 2.27429C51.1862 2.43458 51.4266 2.64513 51.5896 2.90595C51.7526 3.16676 51.8341 3.44524 51.8341 3.74137H51.0598C51.0354 3.47241 50.9566 3.26049 50.8235 3.10563C50.6903 2.94806 50.5246 2.83531 50.3263 2.76739C50.128 2.69675 49.912 2.66143 49.6783 2.66143C49.2572 2.66143 48.938 2.75788 48.7206 2.95078C48.506 3.14095 48.3987 3.36781 48.3987 3.63134C48.3987 3.87314 48.4761 4.06332 48.631 4.20187C48.7859 4.34043 49.0141 4.44775 49.3156 4.52382L50.4975 4.82946C50.8479 4.91097 51.1264 5.02915 51.3329 5.18401C51.5421 5.33887 51.6915 5.51954 51.7812 5.72602C51.8735 5.92978 51.9197 6.1512 51.9197 6.39028C51.9197 6.7163 51.8287 7.007 51.6467 7.26238C51.4646 7.51776 51.2093 7.71881 50.8805 7.86552C50.5545 8.00951 50.1701 8.0815 49.7272 8.0815ZM23.0406 16.064C22.6244 16.064 22.2689 15.969 21.9744 15.7791C21.6819 15.5891 21.4578 15.3158 21.3019 14.9594C21.1482 14.6029 21.0714 14.1727 21.0714 13.669C21.0714 13.1673 21.1482 12.7404 21.3019 12.3882C21.4556 12.036 21.6787 11.7681 21.9712 11.5845C22.2657 11.3988 22.6222 11.3059 23.0406 11.3059C23.3672 11.3059 23.6565 11.3742 23.9083 11.5108C24.1602 11.6453 24.363 11.8257 24.5167 12.052C24.6704 12.2782 24.7611 12.5269 24.7889 12.798H24.1581C24.1239 12.6166 24.0588 12.4522 23.9628 12.3049C23.8667 12.1576 23.7408 12.0402 23.585 11.9527C23.4291 11.8652 23.2423 11.8214 23.0246 11.8214C22.745 11.8214 22.508 11.8876 22.3138 12.0199C22.1216 12.1502 21.9754 12.3519 21.8751 12.6251C21.7769 12.8984 21.7278 13.2484 21.7278 13.6754C21.7278 14.32 21.8377 14.7939 22.0576 15.097C22.2796 15.398 22.6019 15.5485 23.0246 15.5485C23.2423 15.5485 23.4291 15.5026 23.585 15.4108C23.7408 15.319 23.8667 15.1963 23.9628 15.0426C24.0588 14.8889 24.1239 14.7224 24.1581 14.5431H24.7889C24.7654 14.7395 24.712 14.9295 24.6288 15.1131C24.5477 15.2945 24.4356 15.4567 24.2926 15.5998C24.1496 15.7428 23.9735 15.8559 23.7643 15.9392C23.5572 16.0224 23.316 16.064 23.0406 16.064ZM27.0175 16.064C26.7101 16.064 26.439 15.9968 26.2042 15.8623C25.9694 15.7278 25.7858 15.5346 25.6534 15.2828C25.5211 15.0309 25.4549 14.7288 25.4549 14.3766C25.4549 14.0287 25.5147 13.7234 25.6342 13.4608C25.7538 13.1983 25.9267 12.9933 26.1529 12.8461C26.3813 12.6988 26.6556 12.6251 26.9758 12.6251C27.2875 12.6251 27.5511 12.6924 27.7667 12.8268C27.9823 12.9613 28.1456 13.1513 28.2566 13.3968C28.3698 13.6401 28.4263 13.9294 28.4263 14.2645V14.4823H26.0537C26.0537 14.6915 26.0878 14.8814 26.1561 15.0522C26.2266 15.2209 26.3322 15.3553 26.4731 15.4557C26.614 15.556 26.7923 15.6062 27.0079 15.6062C27.2192 15.6062 27.4006 15.5571 27.5522 15.4589C27.7059 15.3607 27.8041 15.2187 27.8468 15.033H28.4039C28.3655 15.2571 28.2758 15.4461 28.135 15.5998C27.9962 15.7534 27.8286 15.8698 27.6322 15.9488C27.438 16.0256 27.2331 16.064 27.0175 16.064ZM26.0569 14.082H27.8564C27.8564 13.892 27.8244 13.7213 27.7603 13.5697C27.6963 13.416 27.5981 13.2954 27.4657 13.2079C27.3355 13.1182 27.1712 13.0734 26.9726 13.0734C26.7656 13.0734 26.5937 13.1236 26.4571 13.2239C26.3205 13.3221 26.2191 13.4491 26.1529 13.6049C26.0868 13.7586 26.0547 13.9176 26.0569 14.082ZM29.2454 16V12.6892H29.809V13.3264C29.8645 13.1684 29.9424 13.0382 30.0427 12.9357C30.1431 12.8311 30.2573 12.7532 30.3853 12.702C30.5156 12.6507 30.65 12.6251 30.7888 12.6251C30.8379 12.6251 30.8859 12.6283 30.9329 12.6347C30.9798 12.6411 31.0161 12.6518 31.0418 12.6667V13.2399C31.0097 13.225 30.9681 13.2153 30.9169 13.2111C30.8678 13.2047 30.8262 13.2015 30.792 13.2015C30.6596 13.1929 30.5358 13.2015 30.4206 13.2271C30.3053 13.2506 30.2039 13.2922 30.1164 13.352C30.0289 13.4117 29.9595 13.4907 29.9083 13.5889C29.8592 13.685 29.8346 13.8024 29.8346 13.9411V16H29.2454ZM32.8667 16.016C32.6383 16.016 32.4611 15.9851 32.3352 15.9232C32.2093 15.8612 32.1207 15.7695 32.0694 15.6478C32.0203 15.5261 31.9958 15.3767 31.9958 15.1995V13.1214H31.4579V12.6892H32.0118L32.1559 11.7254H32.5914V12.686H33.3374V13.1214H32.5914V15.1803C32.5914 15.2977 32.6031 15.3842 32.6266 15.4397C32.6522 15.493 32.6938 15.5272 32.7515 15.5421C32.8091 15.5571 32.8902 15.5645 32.9948 15.5645H33.3566V15.9616C33.3161 15.9765 33.2542 15.9893 33.1709 16C33.0898 16.0107 32.9884 16.016 32.8667 16.016ZM34.1582 16V12.6892H34.7314V16H34.1582ZM34.1422 11.9879V11.3731H34.7474V11.9879H34.1422ZM36.1663 16V13.1214H35.4651V12.6892H36.1663V12.1768C36.1663 11.9143 36.2325 11.7147 36.3648 11.5781C36.4993 11.4393 36.7 11.3699 36.9668 11.3699H37.5912L37.5944 11.7894H37.1013C36.9647 11.7894 36.8718 11.8257 36.8227 11.8983C36.7736 11.9708 36.7491 12.0808 36.7491 12.2281V12.6892H37.5624V13.1214H36.7587V16H36.1663ZM38.2764 16V12.6892H38.8496V16H38.2764ZM38.2604 11.9879V11.3731H38.8656V11.9879H38.2604ZM41.245 16.064C40.9376 16.064 40.6665 15.9968 40.4317 15.8623C40.1969 15.7278 40.0133 15.5346 39.881 15.2828C39.7486 15.0309 39.6824 14.7288 39.6824 14.3766C39.6824 14.0287 39.7422 13.7234 39.8617 13.4608C39.9813 13.1983 40.1542 12.9933 40.3805 12.8461C40.6089 12.6988 40.8832 12.6251 41.2034 12.6251C41.515 12.6251 41.7787 12.6924 41.9943 12.8268C42.2099 12.9613 42.3732 13.1513 42.4842 13.3968C42.5973 13.6401 42.6539 13.9294 42.6539 14.2645V14.4823H40.2812C40.2812 14.6915 40.3154 14.8814 40.3837 15.0522C40.4541 15.2209 40.5598 15.3553 40.7007 15.4557C40.8415 15.556 41.0198 15.6062 41.2354 15.6062C41.4467 15.6062 41.6282 15.5571 41.7797 15.4589C41.9334 15.3607 42.0316 15.2187 42.0743 15.033H42.6315C42.593 15.2571 42.5034 15.4461 42.3625 15.5998C42.2237 15.7534 42.0562 15.8698 41.8598 15.9488C41.6655 16.0256 41.4606 16.064 41.245 16.064ZM40.2844 14.082H42.0839C42.0839 13.892 42.0519 13.7213 41.9879 13.5697C41.9238 13.416 41.8256 13.2954 41.6933 13.2079C41.5631 13.1182 41.3987 13.0734 41.2002 13.0734C40.9931 13.0734 40.8213 13.1236 40.6847 13.2239C40.548 13.3221 40.4466 13.4491 40.3805 13.6049C40.3143 13.7586 40.2823 13.9176 40.2844 14.082ZM44.6801 16.064C44.2489 16.064 43.9074 15.9167 43.6555 15.6222C43.4057 15.3276 43.2809 14.8975 43.2809 14.3318C43.2809 13.9881 43.331 13.6882 43.4313 13.432C43.5317 13.1759 43.6822 12.9773 43.8828 12.8364C44.0835 12.6956 44.3332 12.6251 44.6321 12.6251C44.7922 12.6251 44.9331 12.6454 45.0547 12.686C45.1764 12.7265 45.2821 12.7777 45.3717 12.8396C45.4614 12.9016 45.534 12.9656 45.5895 13.0318C45.6471 13.0979 45.6898 13.1588 45.7176 13.2143V11.2419H46.3163V16H45.8616L45.7976 15.3212C45.7763 15.3852 45.7421 15.4599 45.6951 15.5453C45.6482 15.6286 45.582 15.7108 45.4966 15.7919C45.4134 15.8709 45.3045 15.936 45.17 15.9872C45.0355 16.0384 44.8722 16.064 44.6801 16.064ZM44.7858 15.6094C45.1188 15.6094 45.3568 15.508 45.4998 15.3052C45.645 15.1002 45.7176 14.7662 45.7176 14.303C45.7154 14.0447 45.6834 13.8248 45.6215 13.6433C45.5596 13.4619 45.4614 13.3242 45.3269 13.2303C45.1946 13.1342 45.0174 13.0862 44.7954 13.0862C44.5243 13.0862 44.3034 13.1833 44.1326 13.3776C43.9618 13.5718 43.8764 13.8803 43.8764 14.303C43.8764 14.7171 43.9533 15.0383 44.107 15.2667C44.2607 15.4952 44.4869 15.6094 44.7858 15.6094Z" fill="#423434" fill-opacity="0.6"/>
</svg>
